<?xml version="1.0" encoding="iso-8859-1"?>
<!-- Generator: Adobe Illustrator 19.0.0, SVG Export Plug-In . SVG Version: 6.00 Build 0)  -->
<svg version="1.1" id="Layer_1" xmlns="http://www.w3.org/2000/svg" xmlns:xlink="http://www.w3.org/1999/xlink" x="0px" y="0px"
	 viewBox="0 0 512 512" style="enable-background:new 0 0 512 512;" xml:space="preserve">
<g>
	<polygon style="fill:#FF5F5F;" points="431.12,512 382.8,463.68 448.8,397.68 498.16,447.04 	"/>
	
		<rect x="341.617" y="351.998" transform="matrix(-0.7071 0.7071 -0.7071 -0.7071 881.5287 386.2147)" style="fill:#FF5F5F;" width="38.32" height="47.36"/>
</g>
<g>
	
		<rect x="350.007" y="384.51" transform="matrix(-0.7071 0.7071 -0.7071 -0.7071 968.1555 422.1568)" style="fill:#002833;" width="93.279" height="54.159"/>
	<circle style="fill:#002833;" cx="219.6" cy="205.76" r="205.76"/>
</g>
<circle style="fill:#EFEFEF;" cx="219.6" cy="205.76" r="184.24"/>
<path style="fill:#FF5F5F;" d="M322.24,292.4H116.96c-6.64,0-12.08-5.44-12.08-12.08V131.36c0-6.64,5.44-12.08,12.08-12.08h205.28
	c6.64,0,12.08,5.44,12.08,12.08v148.96C334.32,286.96,328.88,292.4,322.24,292.4z"/>
<polygon style="fill:#FFFFFF;" points="191.68,164 264.16,205.84 191.68,247.68 "/>
<g>
</g>
<g>
</g>
<g>
</g>
<g>
</g>
<g>
</g>
<g>
</g>
<g>
</g>
<g>
</g>
<g>
</g>
<g>
</g>
<g>
</g>
<g>
</g>
<g>
</g>
<g>
</g>
<g>
</g>
</svg>
